#!OML:ASF X:\für Bonn\!DataBase\2005_08_11_Bastian_Final\c3d\Bastian.ASF
:FULLY-SPECIFIED
:DEGREES
34
root 2.41652 21.0643 26.4154 1071.99 -2.4591 -4.48844
lowerback 5.2189 -1.63075 2.78479
upperback 5.65959 -2.11714 0.785743
thorax 2.8438 -0.982414 -0.692074
lowerneck -7.4081 -2.62427 -8.5186
upperneck 7.081 -3.32766 8.4665
head 3.60127 -1.49542 3.7997
rclavicle -6.13748e-015 7.55382e-015
rhumerus -51.759 16.6433 -96.249
rradius 78.0471
rwrist 6.41541
rhand -18.0579 27.3532
rfingers 7.12502
rthumb 8.21449 -2.46714
lclavicle -6.13748e-015 7.55382e-015
lhumerus -37.4461 -14.1918 89.5158
lradius 80.5042
lwrist -159.691
lhand -29.632 14.5297
lfingers 7.12502
lthumb -2.96209 44.4889
rfemur -5.55303 -6.90084 27.2335
rtibia 48.7515
rfoot 12.9925 -5.55555
rtoes -19.0863
lfemur -13.9495 2.63704 -14.8585
ltibia 61.4862
lfoot 16.1228 -0.946173
ltoes -15.2944
35
root 2.40542 21.1022 26.6057 1072.08 -2.70601 -4.45813
lowerback 5.89291 -1.44533 2.92122
upperback 5.77922 -1.84189 0.770744
thorax 2.59805 -0.84196 -0.775754
lowerneck -7.66133 -2.77876 -8.67598
upperneck 7.11166 -3.50978 8.56637
head 3.67307 -1.5794 3.84365
rclavicle 1.03617e-014 -9.54166e-015
rhumerus -51.0462 17.0686 -96.2673
rradius 77.1795
rwrist 6.90214
rhand -18.0405 27.5548
rfingers 7.12502
rthumb 8.23123 -2.26489
lclavicle 1.03617e-014 -9.54166e-015
lhumerus -36.9359 -13.7324 89.5574
lradius 80.0786
lwrist -160.242
lhand -29.6572 13.9755
lfingers 7.12502
lthumb -2.98639 43.9343
rfemur -6.44286 -6.61781 27.174
rtibia 48.4662
rfoot 11.8771 -6.72045
rtoes -19.0788
lfemur -14.7144 2.9453 -14.7666
ltibia 60.4472
lfoot 16.1067 -1.94707
ltoes -16.0985
36
root 2.39386 21.1296 26.7971 1072.12 -2.97843 -4.37021
lowerback 6.59747 -1.27298 2.95364
upperback 5.91266 -1.58632 0.761431
thorax 2.35407 -0.715003 -0.798876
lowerneck -7.86719 -2.90382 -8.82355
upperneck 7.09182 -3.6494 8.62086
head 3.71743 -1.6452 3.87436
rclavicle -1.30204e-014 3.00165e-014
rhumerus -50.3045 17.6369 -96.26
rradius 76.4006
rwrist 7.21256
rhand -17.8461 27.4734
rfingers 7.12502
rthumb 8.41881 -2.33885
lclavicle -1.30204e-014 3.00165e-014
lhumerus -36.4911 -13.1848 89.613
lradius 79.6157
lwrist -160.708
lhand -29.6413 13.624
lfingers 7.12502
lthumb -2.97106 43.5831
rfemur -7.2447 -6.20961 27.0803
rtibia 48.1037
rfoot 11.0919 -7.53744
rtoes -19.5932
lfemur -15.352 3.15813 -14.7572
ltibia 59.2699
lfoot 16.1683 -2.94205
ltoes -17.1666
37
root 2.38176 21.1447 26.9889 1072.08 -3.25201 -4.25
lowerback 7.31793 -1.08049 2.96962
upperback 6.0892 -1.30491 0.722735
thorax 2.14857 -0.574161 -0.849169
lowerneck -8.12473 -3.05157 -8.94564
upperneck 7.01108 -3.8178 8.70924
head 3.75512 -1.72175 3.90871
rclavicle -8.22472e-015 4.77083e-015
rhumerus -49.528 18.1428 -96.2494
rradius 75.7654
rwrist 7.39807
rhand -17.4715 27.1389
rfingers 7.12502
rthumb 8.78039 -2.65844
lclavicle -8.22472e-015 4.77083e-015
lhumerus -35.9838 -12.6758 89.6351
lradius 79.0686
lwrist -161.174
lhand -29.6924 13.5404
lfingers 7.12502
lthumb -3.02038 43.4987
rfemur -7.93016 -5.74667 26.9641
rtibia 47.6566
rfoot 10.6092 -8.0569
rtoes -20.6653
lfemur -15.8689 3.29993 -14.7855
ltibia 57.9812
lfoot 16.1374 -4.02509
ltoes -19.5089
38
root 2.36798 21.1495 27.1828 1071.97 -3.52584 -4.07013
lowerback 8.0633 -0.884936 2.88928
upperback 6.28239 -1.02489 0.68266
thorax 1.94987 -0.43691 -0.85159
lowerneck -8.35828 -3.1956 -9.03652
upperneck 6.86612 -3.9804 8.7724
head 3.76813 -1.79629 3.93019
rclavicle -6.28657e-015 9.34288e-015
rhumerus -48.8085 18.7086 -96.2097
rradius 75.2505
rwrist 7.43563
rhand -16.9462 26.6208
rfingers 7.12502
rthumb 9.28723 -3.15462
lclavicle -6.28657e-015 9.34288e-015
lhumerus -35.5332 -12.2268 89.6606
lradius 78.5006
lwrist -161.511
lhand -29.6845 13.6695
lfingers 7.12502
lthumb -3.01281 43.6279
rfemur -8.49006 -5.22056 26.786
rtibia 47.1487
rfoot 10.3039 -8.22549
rtoes -22.2726
lfemur -16.2126 3.39581 -14.8659
ltibia 56.5741
lfoot 16.1787 -5.20689
ltoes -21.8598
39
root 2.35396 21.1449 27.3773 1071.86 -3.80056 -3.92317
lowerback 8.78781 -0.704038 2.83095
upperback 6.47599 -0.765757 0.659085
thorax 1.76382 -0.309519 -0.852953
lowerneck -8.60773 -3.31884 -9.122
upperneck 6.69312 -4.11033 8.81432
head 3.77191 -1.85514 3.94584
rclavicle 1.56543e-015 1.33186e-014
rhumerus -48.1332 19.2776 -96.174
rradius 74.8126
rwrist 7.42708
rhand -16.358 26.0106
rfingers 7.12502
rthumb 9.85476 -3.73877
lclavicle 1.56543e-015 1.33186e-014
lhumerus -35.1313 -11.7078 89.6977
lradius 77.8917
lwrist -161.906
lhand -29.6729 13.9648
lfingers 7.12502
lthumb -3.00159 43.9234
rfemur -9.07096 -4.60664 26.6363
rtibia 46.5857
rfoot 10.1277 -8.22907
rtoes -23.0521
lfemur -16.4964 3.42489 -14.9042
ltibia 55.1042
lfoot 16.1622 -6.48595
ltoes -24.3513
40
root 2.33945 21.1289 27.5742 1071.79 -4.08251 -3.74095
lowerback 9.4091 -0.508322 2.74249
upperback 6.66371 -0.494126 0.630449
thorax 1.62995 -0.176097 -0.84874
lowerneck -8.65015 -3.44788 -9.21811
upperneck 6.34309 -4.25244 8.84276
head 3.68922 -1.92588 3.96018
rclavicle -3.23025e-015 -2.36554e-014
rhumerus -47.4784 19.8175 -96.1133
rradius 74.3864
rwrist 7.33618
rhand -15.7836 25.419
rfingers 7.12502
rthumb 10.409 -4.3034
lclavicle -3.23025e-015 -2.36554e-014
lhumerus -34.8063 -11.2315 89.7587
lradius 77.3275
lwrist -162.329
lhand -29.6273 14.2706
lfingers 7.12502
lthumb -2.95754 44.2299
rfemur -9.68444 -4.02098 26.4293
rtibia 46.0018
rfoot 10.1138 -7.85409
rtoes -23.7054
lfemur -16.733 3.44587 -14.9846
ltibia 53.5718
lfoot 16.1043 -7.75538
ltoes -26.8196
41
root 2.32314 21.1021 27.7724 1071.74 -4.34396 -3.56072
lowerback 9.98552 -0.306395 2.67577
upperback 6.84174 -0.215418 0.569386
thorax 1.5115 -0.037574 -0.894787
lowerneck -8.6285 -3.57112 -9.29021
upperneck 5.94279 -4.39704 8.92755
head 3.58213 -1.9963 3.98898
rclavicle -5.96354e-016 1.59028e-014
rhumerus -46.8322 20.2543 -96.0835
rradius 73.8778
rwrist 7.19865
rhand -15.3126 25.0243
rfingers 7.12502
rthumb 10.8632 -4.67468
lclavicle -5.96354e-016 1.59028e-014
lhumerus -34.5446 -10.9172 89.7595
lradius 76.7809
lwrist -162.675
lhand -29.5109 14.5648
lfingers 7.12502
lthumb -2.84512 44.5255
rfemur -10.3374 -3.47161 26.2148
rtibia 45.4229
rfoot 10.2166 -7.12297
rtoes -24.6207
lfemur -16.9672 3.42664 -15.0544
ltibia 52.0193
lfoot 16.1328 -9.04238
ltoes -28.9761
42
root 2.30469 21.0625 27.9725 1071.78 -4.57074 -3.37928
lowerback 10.4935 -0.119347 2.55331
upperback 7.00588 0.0356341 0.53662
thorax 1.4156 0.0848211 -0.88139
lowerneck -8.71679 -3.70182 -9.37712
upperneck 5.56299 -4.54088 9.00494
head 3.49976 -2.06447 4.01685
rclavicle 2.02263e-014 -5.96354e-016
rhumerus -46.2668 20.6804 -96.0021
rradius 73.3386
rwrist 7.08825
rhand -15.0329 24.9253
rfingers 7.12502
rthumb 11.133 -4.75939
lclavicle 2.02263e-014 -5.96354e-016
lhumerus -34.2889 -10.5274 89.7796
lradius 76.2364
lwrist -163.044
lhand -29.4554 14.8934
lfingers 7.12502
lthumb -2.79148 44.8549
rfemur -11.1006 -2.97188 26.0024
rtibia 44.8856
rfoot 10.3714 -6.11791
rtoes -25.6851
lfemur -17.2624 3.364 -15.1217
ltibia 50.4275
lfoot 16.3666 -10.2389
ltoes -30.2783
43
root 2.28381 21.0073 28.1749 1072.02 -4.75986 -3.26902
lowerback 10.7737 0.0571705 2.46648
upperback 7.12701 0.26812 0.531179
thorax 1.39787 0.199113 -0.859907
lowerneck -8.87737 -3.82167 -9.47331
upperneck 5.22791 -4.66357 9.06624
head 3.44077 -2.12129 4.04178
rclavicle 5.61567e-015 3.97569e-016
rhumerus -45.7554 20.9515 -95.8829
rradius 72.6513
rwrist 7.04005
rhand -14.9197 25.2415
rfingers 7.12502
rthumb 11.2422 -4.43723
lclavicle 5.61567e-015 3.97569e-016
lhumerus -34.0261 -10.2654 89.7865
lradius 75.7336
lwrist -163.381
lhand -29.3094 15.0457
lfingers 7.12502
lthumb -2.65049 45.009
rfemur -12.109 -2.45829 25.897
rtibia 44.4061
rfoot 10.5632 -5.04786
rtoes -26.892
lfemur -17.7673 3.26854 -15.1146
ltibia 48.8126
lfoot 16.886 -11.1926
ltoes -30.9976
44
root 2.2601 20.94 28.3807 1072.38 -4.94201 -3.10932
lowerback 10.9487 0.246885 2.28874
upperback 7.16817 0.508198 0.523643
thorax 1.35177 0.313385 -0.791264
lowerneck -8.94819 -3.94455 -9.5582
upperneck 4.90847 -4.79876 9.11387
head 3.37249 -2.18669 4.06097
rclavicle -1.10822e-014 1.11319e-014
rhumerus -45.4098 21.0702 -95.7632
rradius 71.8677
rwrist 7.12651
rhand -15.1005 25.9408
rfingers 7.12502
rthumb 11.0678 -3.74743
lclavicle -1.10822e-014 1.11319e-014
lhumerus -33.9049 -10.0139 89.8151
lradius 75.2242
lwrist -163.666
lhand -29.1537 15.1472
lfingers 7.12502
lthumb -2.50013 45.1123
rfemur -13.2522 -1.93987 25.7399
rtibia 43.9797
rfoot 10.7347 -3.96579
rtoes -28.1103
lfemur -18.3376 3.16618 -15.1544
ltibia 47.1457
lfoot 17.5424 -11.6716
ltoes -30.925
45
root 2.23646 20.8583 28.5883 1072.61 -5.09615 -2.9592
lowerback 11.1915 0.421993 2.12781
upperback 7.25266 0.730571 0.517318
thorax 1.31331 0.419628 -0.730424
lowerneck -9.014 -4.05916 -9.65168
upperneck 4.61825 -4.92374 9.16308
head 3.31163 -2.24718 4.08285
rclavicle -1.88348e-014 5.1684e-015
rhumerus -45.0404 21.1266 -95.6258
rradius 71.1004
rwrist 7.12451
rhand -15.2792 26.6811
rfingers 7.12502
rthumb 10.8954 -3.01624
lclavicle -1.88348e-014 5.1684e-015
lhumerus -33.7164 -9.80823 89.8448
lradius 74.8181
lwrist -163.962
lhand -29.0117 15.06
lfingers 7.12502
lthumb -2.36301 45.0267
rfemur -14.2574 -1.39858 25.5732
rtibia 43.5925
rfoot 10.8566 -3.08377
rtoes -28.8494
lfemur -18.7241 3.02976 -15.181
ltibia 45.4468
lfoot 18.2499 -11.7428
ltoes -30.5349
46
root 2.21596 20.7653 28.7973 1072.65 -5.26435 -2.74437
lowerback 11.6438 0.588712 1.92574
upperback 7.29961 0.942622 0.508705
thorax 1.12052 0.517713 -0.652269
lowerneck -8.91826 -4.14529 -9.8062
upperneck 4.38431 -5.01974 9.20716
head 3.24002 -2.29837 4.11731
rclavicle -1.27719e-014 1.78906e-015
rhumerus -44.7723 21.1187 -95.5025
rradius 70.3999
rwrist 7.15033
rhand -15.4135 27.3016
rfingers 7.12502
rthumb 10.766 -2.40252
lclavicle -1.27719e-014 1.78906e-015
lhumerus -33.6544 -9.52149 89.9348
lradius 74.6032
lwrist -164.271
lhand -28.9051 14.7386
lfingers 7.12502
lthumb -2.26001 44.7064
rfemur -15.0569 -0.951676 25.3001
rtibia 43.2053
rfoot 10.9325 -2.32636
rtoes -29.3115
lfemur -18.8419 2.82398 -15.2821
ltibia 43.6862
lfoot 18.9537 -11.502
ltoes -29.8835
47
root 2.20026 20.6651 29.0086 1072.68 -5.48403 -2.53356
lowerback 12.0139 0.771164 1.81559
upperback 7.34971 1.18003 0.469986
thorax 0.978222 0.632756 -0.660692
lowerneck -8.74274 -4.2296 -9.94195
upperneck 4.18147 -5.12591 9.26679
head 3.16594 -2.35546 4.15414
rclavicle -3.27995e-014 1.17283e-014
rhumerus -44.4799 20.9681 -95.4048
rradius 69.7495
rwrist 7.19055
rhand -15.5699 27.7805
rfingers 7.12502
rthumb 10.615 -1.93135
lclavicle -3.27995e-014 1.17283e-014
lhumerus -33.5362 -9.33577 90.0074
lradius 74.4304
lwrist -164.52
lhand -28.8204 14.3097
lfingers 7.12502
lthumb -2.17822 44.2784
rfemur -15.8276 -0.536318 24.9985
rtibia 42.7987
rfoot 10.994 -1.72648
rtoes -29.1374
lfemur -18.9058 2.61687 -15.3905
ltibia 41.9184
lfoot 19.5209 -10.9844
ltoes -29.413
48
root 2.18826 20.5634 29.224 1072.68 -5.70956 -2.25995
lowerback 12.2436 0.943966 1.7107
upperback 7.42278 1.40059 0.387026
thorax 0.936531 0.741488 -0.715148
lowerneck -8.34162 -4.27674 -10.0308
upperneck 3.85889 -5.20093 9.31431
head 3.01488 -2.40239 4.18593
rclavicle 4.17448e-015 -2.18663e-015
rhumerus -44.1891 20.7877 -95.334
rradius 69.0928
rwrist 7.18835
rhand -15.6698 27.9373
rfingers 7.12502
rthumb 10.5187 -1.77949
lclavicle 4.17448e-015 -2.18663e-015
lhumerus -33.4529 -9.17661 90.0485
lradius 74.275
lwrist -164.702
lhand -28.7084 13.8853
lfingers 7.12502
lthumb -2.07013 43.855
rfemur -16.5328 -0.234045 24.6077
rtibia 42.3643
rfoot 11.0188 -1.10581
rtoes -28.7293
lfemur -18.8755 2.41201 -15.5855
ltibia 40.1274
lfoot 19.9373 -10.3336
ltoes -29.5965
